# Blender v2.93.5 OBJ File: 'AeroportOK.blend'
# www.blender.org
mtllib InteriorHangar.mtl
o InteriorHangar_Plane.020
v -40.980595 -0.030167 -16.552713
v -81.545395 -0.030179 -16.552713
v -81.545395 -0.030912 19.956438
v -40.980595 -0.030899 19.956438
v -81.545395 1.846929 -16.408796
v -81.545395 3.694437 -15.979218
v -81.545395 5.483201 -15.270776
v -81.545395 7.185000 -14.294679
v -81.545395 8.773027 -13.066342
v -81.545395 10.222226 -11.605038
v -81.545395 11.509721 -9.933880
v -81.545395 12.615215 -8.079220
v -81.545395 13.521296 -6.070270
v -81.545395 14.213589 -3.938793
v -81.545395 14.681344 -1.718334
v -81.545395 14.917033 0.556065
v -81.545395 14.916976 2.848523
v -81.545395 14.681170 5.122906
v -81.545395 14.213415 7.343335
v -81.545395 13.520947 9.474766
v -81.545395 12.614810 11.483639
v -81.545395 11.509256 13.338238
v -81.545395 10.221704 15.009319
v -81.545395 8.772447 16.470554
v -81.545395 7.184364 17.698826
v -81.545395 5.482516 18.674852
v -81.545395 3.693724 19.383150
v -81.545395 1.846204 19.812586
v -40.980595 1.846941 -16.408796
v -40.980595 3.694450 -15.979215
v -40.980595 5.483214 -15.270772
v -40.980595 7.185014 -14.294679
v -40.980595 8.773039 -13.066342
v -40.980595 10.222238 -11.605030
v -40.980595 11.509732 -9.933880
v -40.980595 12.615227 -8.079212
v -40.980595 13.521307 -6.070262
v -40.980595 14.213600 -3.938793
v -40.980595 14.681355 -1.718334
v -40.980595 14.917045 0.556065
v -40.980595 14.916988 2.848523
v -40.980595 14.681182 5.122906
v -40.980595 14.213426 7.343335
v -40.980595 13.520959 9.474766
v -40.980595 12.614821 11.483639
v -40.980595 11.509268 13.338238
v -40.980595 10.221715 15.009327
v -40.980595 8.772458 16.470570
v -40.980595 7.184378 17.698833
v -40.980595 5.482530 18.674852
v -40.980595 3.693738 19.383158
v -40.980595 1.846218 19.812593
v -40.980595 -0.030158 -60.671940
v -81.545395 -0.030171 -60.671947
v -81.545395 -0.030903 -24.162794
v -40.980595 -0.030891 -24.162786
v -81.545395 1.846937 -60.528027
v -81.545395 3.694446 -60.098446
v -81.545395 5.483209 -59.390003
v -81.545395 7.185008 -58.413906
v -81.545395 8.773036 -57.185574
v -81.545395 10.222235 -55.724262
v -81.545395 11.509728 -54.053104
v -81.545395 12.615224 -52.198441
v -81.545395 13.521305 -50.189499
v -81.545395 14.213596 -48.058022
v -81.545395 14.681353 -45.837563
v -81.545395 14.917041 -43.563171
v -81.545395 14.916984 -41.270706
v -81.545395 14.681179 -38.996323
v -81.545395 14.213423 -36.775894
v -81.545395 13.520956 -34.644466
v -81.545395 12.614819 -32.635586
v -81.545395 11.509264 -30.780994
v -81.545395 10.221712 -29.109909
v -81.545395 8.772455 -27.648670
v -81.545395 7.184372 -26.420403
v -81.545395 5.482524 -25.444376
v -81.545395 3.693732 -24.736074
v -81.545395 1.846212 -24.306639
v -40.980595 1.846950 -60.528027
v -40.980595 3.694458 -60.098446
v -40.980595 5.483221 -59.390003
v -40.980595 7.185022 -58.413906
v -40.980595 8.773047 -57.185574
v -40.980595 10.222246 -55.724262
v -40.980595 11.509740 -54.053104
v -40.980595 12.615235 -52.198441
v -40.980595 13.521316 -50.189491
v -40.980595 14.213608 -48.058022
v -40.980595 14.681364 -45.837563
v -40.980595 14.917052 -43.563171
v -40.980595 14.916996 -41.270706
v -40.980595 14.681190 -38.996323
v -40.980595 14.213434 -36.775894
v -40.980595 13.520967 -34.644466
v -40.980595 12.614830 -32.635578
v -40.980595 11.509275 -30.780994
v -40.980595 10.221724 -29.109909
v -40.980595 8.772467 -27.648670
v -40.980595 7.184385 -26.420403
v -40.980595 5.482538 -25.444376
v -40.980595 3.693746 -24.736074
v -40.980595 1.846225 -24.306639
v -40.980595 -0.030152 -103.550858
v -81.545395 -0.030164 -103.550858
v -81.545395 -0.030897 -67.041702
v -40.980595 -0.030884 -67.041702
v -81.545395 1.846944 -103.406937
v -81.545395 3.694451 -102.977371
v -81.545395 5.483215 -102.268921
v -81.545395 7.185014 -101.292831
v -81.545395 8.773042 -100.064484
v -81.545395 10.222240 -98.603180
v -81.545395 11.509735 -96.932022
v -81.545395 12.615230 -95.077362
v -81.545395 13.521310 -93.068420
v -81.545395 14.213603 -90.936935
v -81.545395 14.681358 -88.716476
v -81.545395 14.917048 -86.442093
v -81.545395 14.916989 -84.149628
v -81.545395 14.681185 -81.875244
v -81.545395 14.213429 -79.654816
v -81.545395 13.520962 -77.523376
v -81.545395 12.614824 -75.514496
v -81.545395 11.509271 -73.659912
v -81.545395 10.221718 -71.988831
v -81.545395 8.772461 -70.527588
v -81.545395 7.184378 -69.299316
v -81.545395 5.482530 -68.323288
v -81.545395 3.693738 -67.614990
v -81.545395 1.846218 -67.185547
v -40.980595 1.846956 -103.406937
v -40.980595 3.694464 -102.977356
v -40.980595 5.483228 -102.268921
v -40.980595 7.185028 -101.292831
v -40.980595 8.773053 -100.064484
v -40.980595 10.222252 -98.603180
v -40.980595 11.509747 -96.932022
v -40.980595 12.615241 -95.077362
v -40.980595 13.521321 -93.068420
v -40.980595 14.213614 -90.936935
v -40.980595 14.681370 -88.716476
v -40.980595 14.917059 -86.442093
v -40.980595 14.917002 -84.149628
v -40.980595 14.681196 -81.875244
v -40.980595 14.213440 -79.654816
v -40.980595 13.520973 -77.523376
v -40.980595 12.614836 -75.514496
v -40.980595 11.509282 -73.659912
v -40.980595 10.221729 -71.988831
v -40.980595 8.772472 -70.527588
v -40.980595 7.184392 -69.299316
v -40.980595 5.482543 -68.323288
v -40.980595 3.693752 -67.614990
v -40.980595 1.846232 -67.185547
v 96.690262 -0.030166 -21.912188
v 96.690262 -0.030184 18.652605
v 133.199432 -0.030910 18.652605
v 133.199432 -0.030892 -21.912188
v 96.834183 1.846924 18.652605
v 97.263756 3.694432 18.652605
v 97.972198 5.483196 18.652605
v 98.948296 7.184996 18.652607
v 100.176636 8.773023 18.652607
v 101.637939 10.222221 18.652607
v 103.309097 11.509716 18.652607
v 105.163757 12.615211 18.652607
v 107.172714 13.521292 18.652607
v 109.304184 14.213585 18.652607
v 111.524635 14.681341 18.652607
v 113.799034 14.917030 18.652607
v 116.091499 14.916973 18.652607
v 118.365875 14.681169 18.652607
v 120.586311 14.213413 18.652607
v 122.717743 13.520947 18.652607
v 124.726616 12.614809 18.652607
v 126.581207 11.509255 18.652607
v 128.252289 10.221704 18.652607
v 129.713531 8.772447 18.652607
v 130.941803 7.184364 18.652607
v 131.917816 5.482517 18.652605
v 132.626129 3.693725 18.652605
v 133.055573 1.846205 18.652605
v 96.834183 1.846942 -21.912188
v 97.263756 3.694451 -21.912188
v 97.972198 5.483215 -21.912188
v 98.948296 7.185015 -21.912182
v 100.176636 8.773041 -21.912182
v 101.637939 10.222239 -21.912182
v 103.309097 11.509734 -21.912182
v 105.163757 12.615230 -21.912182
v 107.172714 13.521310 -21.912182
v 109.304184 14.213603 -21.912182
v 111.524635 14.681359 -21.912182
v 113.799034 14.917048 -21.912182
v 116.091499 14.916992 -21.912182
v 118.365875 14.681187 -21.912182
v 120.586311 14.213430 -21.912182
v 122.717743 13.520965 -21.912182
v 124.726616 12.614827 -21.912182
v 126.581207 11.509274 -21.912182
v 128.252289 10.221722 -21.912182
v 129.713531 8.772465 -21.912182
v 130.941803 7.184384 -21.912182
v 131.917816 5.482536 -21.912188
v 132.626129 3.693745 -21.912188
v 133.055573 1.846224 -21.912188
v 52.571026 -0.030166 -21.912188
v 52.571026 -0.030184 18.652605
v 89.080177 -0.030910 18.652605
v 89.080177 -0.030892 -21.912188
v 52.714939 1.846924 18.652605
v 53.144520 3.694432 18.652605
v 53.852959 5.483196 18.652605
v 54.829060 7.184996 18.652607
v 56.057396 8.773023 18.652607
v 57.518703 10.222221 18.652607
v 59.189861 11.509716 18.652607
v 61.044521 12.615211 18.652607
v 63.053471 13.521292 18.652607
v 65.184944 14.213585 18.652607
v 67.405403 14.681341 18.652607
v 69.679802 14.917030 18.652607
v 71.972260 14.916973 18.652607
v 74.246643 14.681169 18.652607
v 76.467079 14.213413 18.652607
v 78.598511 13.520947 18.652607
v 80.607384 12.614809 18.652607
v 82.461975 11.509255 18.652607
v 84.133057 10.221704 18.652607
v 85.594299 8.772447 18.652607
v 86.822571 7.184364 18.652607
v 87.798592 5.482517 18.652605
v 88.506897 3.693725 18.652605
v 88.936333 1.846205 18.652605
v 52.714939 1.846942 -21.912188
v 53.144520 3.694451 -21.912188
v 53.852959 5.483215 -21.912188
v 54.829060 7.185015 -21.912182
v 56.057396 8.773041 -21.912182
v 57.518703 10.222239 -21.912182
v 59.189861 11.509734 -21.912182
v 61.044521 12.615230 -21.912182
v 63.053471 13.521310 -21.912182
v 65.184944 14.213603 -21.912182
v 67.405403 14.681359 -21.912182
v 69.679802 14.917048 -21.912182
v 71.972260 14.916992 -21.912182
v 74.246643 14.681187 -21.912182
v 76.467079 14.213430 -21.912182
v 78.598511 13.520965 -21.912182
v 80.607384 12.614827 -21.912182
v 82.461975 11.509274 -21.912182
v 84.133057 10.221722 -21.912182
v 85.594299 8.772465 -21.912182
v 86.822571 7.184384 -21.912182
v 87.798592 5.482536 -21.912188
v 88.506897 3.693745 -21.912188
v 88.936333 1.846224 -21.912188
vt 6.166440 6.650000
vt 6.166440 0.636931
vt 6.650000 6.650000
vt 6.650000 0.636931
vt 5.682890 6.650000
vt 5.682890 0.636931
vt 5.199330 6.650000
vt 5.199330 0.636931
vt 4.715770 6.650000
vt 4.715770 0.636931
vt 4.232220 6.650000
vt 4.232220 0.636931
vt 3.748660 6.650000
vt 3.748660 0.636931
vt 3.265100 6.650000
vt 3.265100 0.636931
vt 2.781540 6.650000
vt 2.781540 0.636931
vt 2.297990 6.650000
vt 2.297990 0.636931
vt 1.814430 6.650000
vt 1.814430 0.636931
vt 1.330870 6.650000
vt 1.330870 0.636931
vt 0.847316 6.650000
vt 0.847316 0.636931
vt 0.363759 6.650000
vt 0.363759 0.636931
vt -0.119797 0.636931
vt -0.119797 6.650000
vt -0.603354 0.636931
vt -0.603354 6.650000
vt -1.086910 0.636931
vt -1.086910 6.650000
vt -1.570470 0.636931
vt -1.570470 6.650000
vt -2.054030 0.636931
vt -2.054030 6.650000
vt -2.537580 0.636931
vt -2.537580 6.650000
vt -3.021140 0.636931
vt -3.021140 6.650000
vt -3.504700 0.636931
vt -3.504700 6.650000
vt -3.988250 0.636931
vt -3.988250 6.650000
vt -4.471810 0.636931
vt -4.471810 6.650000
vt -4.955370 0.636931
vt -4.955370 6.650000
vt -5.438920 0.636931
vt -5.438920 6.650000
vt 6.166440 6.650000
vt 6.166440 0.636931
vt 6.650000 6.650000
vt 6.650000 0.636931
vt 5.682890 6.650000
vt 5.682890 0.636931
vt 5.199330 6.650000
vt 5.199330 0.636931
vt 4.715770 6.650000
vt 4.715770 0.636931
vt 4.232220 6.650000
vt 4.232220 0.636931
vt 3.748660 6.650000
vt 3.748660 0.636931
vt 3.265100 6.650000
vt 3.265100 0.636931
vt 2.781540 6.650000
vt 2.781540 0.636931
vt 2.297990 6.650000
vt 2.297990 0.636931
vt 1.814430 6.650000
vt 1.814430 0.636931
vt 1.330870 6.650000
vt 1.330870 0.636931
vt 0.847316 6.650000
vt 0.847316 0.636931
vt 0.363759 6.650000
vt 0.363759 0.636931
vt -0.119797 0.636931
vt -0.119797 6.650000
vt -0.603354 0.636931
vt -0.603354 6.650000
vt -1.086910 0.636931
vt -1.086910 6.650000
vt -1.570470 0.636931
vt -1.570470 6.650000
vt -2.054030 0.636931
vt -2.054030 6.650000
vt -2.537580 0.636931
vt -2.537580 6.650000
vt -3.021140 0.636931
vt -3.021140 6.650000
vt -3.504700 0.636931
vt -3.504700 6.650000
vt -3.988250 0.636931
vt -3.988250 6.650000
vt -4.471810 0.636931
vt -4.471810 6.650000
vt -4.955370 0.636931
vt -4.955370 6.650000
vt -5.438920 0.636931
vt -5.438920 6.650000
vt 6.166440 6.650000
vt 6.166440 0.636931
vt 6.650000 6.650000
vt 6.650000 0.636931
vt 5.682890 6.650000
vt 5.682890 0.636931
vt 5.199330 6.650000
vt 5.199330 0.636931
vt 4.715770 6.650000
vt 4.715770 0.636931
vt 4.232220 6.650000
vt 4.232220 0.636931
vt 3.748660 6.650000
vt 3.748660 0.636931
vt 3.265100 6.650000
vt 3.265100 0.636931
vt 2.781540 6.650000
vt 2.781540 0.636931
vt 2.297990 6.650000
vt 2.297990 0.636931
vt 1.814430 6.650000
vt 1.814430 0.636931
vt 1.330870 6.650000
vt 1.330870 0.636931
vt 0.847316 6.650000
vt 0.847316 0.636931
vt 0.363759 6.650000
vt 0.363759 0.636931
vt -0.119797 0.636931
vt -0.119797 6.650000
vt -0.603354 0.636931
vt -0.603354 6.650000
vt -1.086910 0.636931
vt -1.086910 6.650000
vt -1.570470 0.636931
vt -1.570470 6.650000
vt -2.054030 0.636931
vt -2.054030 6.650000
vt -2.537580 0.636931
vt -2.537580 6.650000
vt -3.021140 0.636931
vt -3.021140 6.650000
vt -3.504700 0.636931
vt -3.504700 6.650000
vt -3.988250 0.636931
vt -3.988250 6.650000
vt -4.471810 0.636931
vt -4.471810 6.650000
vt -4.955370 0.636931
vt -4.955370 6.650000
vt -5.438920 0.636931
vt -5.438920 6.650000
vt 6.166440 6.650000
vt 6.166440 0.636931
vt 6.650000 6.650000
vt 6.650000 0.636931
vt 5.682890 6.650000
vt 5.682890 0.636931
vt 5.199330 6.650000
vt 5.199330 0.636931
vt 4.715770 6.650000
vt 4.715770 0.636931
vt 4.232220 6.650000
vt 4.232220 0.636931
vt 3.748660 6.650000
vt 3.748660 0.636931
vt 3.265100 6.650000
vt 3.265100 0.636931
vt 2.781540 6.650000
vt 2.781540 0.636931
vt 2.297990 6.650000
vt 2.297990 0.636931
vt 1.814430 6.650000
vt 1.814430 0.636931
vt 1.330870 6.650000
vt 1.330870 0.636931
vt 0.847316 6.650000
vt 0.847316 0.636931
vt 0.363759 6.650000
vt 0.363759 0.636931
vt -0.119797 0.636931
vt -0.119797 6.650000
vt -0.603354 0.636931
vt -0.603354 6.650000
vt -1.086910 0.636931
vt -1.086910 6.650000
vt -1.570470 0.636931
vt -1.570470 6.650000
vt -2.054030 0.636931
vt -2.054030 6.650000
vt -2.537580 0.636931
vt -2.537580 6.650000
vt -3.021140 0.636931
vt -3.021140 6.650000
vt -3.504700 0.636931
vt -3.504700 6.650000
vt -3.988250 0.636931
vt -3.988250 6.650000
vt -4.471810 0.636931
vt -4.471810 6.650000
vt -4.955370 0.636931
vt -4.955370 6.650000
vt -5.438920 0.636931
vt -5.438920 6.650000
vt 6.166440 6.650000
vt 6.166440 0.636931
vt 6.650000 6.650000
vt 6.650000 0.636931
vt 5.682890 6.650000
vt 5.682890 0.636931
vt 5.199330 6.650000
vt 5.199330 0.636931
vt 4.715770 6.650000
vt 4.715770 0.636931
vt 4.232220 6.650000
vt 4.232220 0.636931
vt 3.748660 6.650000
vt 3.748660 0.636931
vt 3.265100 6.650000
vt 3.265100 0.636931
vt 2.781540 6.650000
vt 2.781540 0.636931
vt 2.297990 6.650000
vt 2.297990 0.636931
vt 1.814430 6.650000
vt 1.814430 0.636931
vt 1.330870 6.650000
vt 1.330870 0.636931
vt 0.847316 6.650000
vt 0.847316 0.636931
vt 0.363759 6.650000
vt 0.363759 0.636931
vt -0.119797 0.636931
vt -0.119797 6.650000
vt -0.603354 0.636931
vt -0.603354 6.650000
vt -1.086910 0.636931
vt -1.086910 6.650000
vt -1.570470 0.636931
vt -1.570470 6.650000
vt -2.054030 0.636931
vt -2.054030 6.650000
vt -2.537580 0.636931
vt -2.537580 6.650000
vt -3.021140 0.636931
vt -3.021140 6.650000
vt -3.504700 0.636931
vt -3.504700 6.650000
vt -3.988250 0.636931
vt -3.988250 6.650000
vt -4.471810 0.636931
vt -4.471810 6.650000
vt -4.955370 0.636931
vt -4.955370 6.650000
vt -5.438920 0.636931
vt -5.438920 6.650000
vn 0.0000 -0.1518 -0.9884
vn 0.0000 -0.0764 -0.9971
vn 0.0000 -0.2981 -0.9545
vn 0.0000 -0.4339 -0.9009
vn 0.0000 -0.5560 -0.8312
vn 0.0000 -0.6623 -0.7492
vn 0.0000 -0.7525 -0.6585
vn 0.0000 -0.8270 -0.5622
vn 0.0000 -0.8867 -0.4624
vn 0.0000 -0.9327 -0.3606
vn 0.0000 -0.9662 -0.2579
vn 0.0000 -0.9879 -0.1548
vn 0.0000 -0.9987 -0.0516
vn 0.0000 -0.9987 0.0516
vn 0.0000 -0.9879 0.1548
vn 0.0000 -0.9662 0.2579
vn 0.0000 -0.9327 0.3606
vn 0.0000 -0.8867 0.4623
vn 0.0000 -0.8270 0.5621
vn 0.0000 -0.7526 0.6585
vn 0.0000 -0.6624 0.7492
vn 0.0000 -0.5560 0.8312
vn 0.0000 -0.4340 0.9009
vn -0.0000 -0.2982 0.9545
vn -0.0000 -0.1519 0.9884
vn 0.0000 -0.0764 0.9971
vn -0.9884 -0.1518 -0.0000
vn -0.9971 -0.0764 -0.0000
vn -0.9545 -0.2981 -0.0000
vn -0.9009 -0.4340 -0.0000
vn -0.9009 -0.4339 -0.0000
vn -0.8312 -0.5560 -0.0000
vn -0.7492 -0.6623 -0.0000
vn -0.6585 -0.7525 -0.0000
vn -0.5622 -0.8270 -0.0000
vn -0.4624 -0.8867 -0.0000
vn -0.3606 -0.9327 -0.0000
vn -0.2579 -0.9662 -0.0000
vn -0.1548 -0.9879 -0.0000
vn -0.0516 -0.9987 -0.0000
vn 0.0516 -0.9987 -0.0000
vn 0.1548 -0.9879 -0.0000
vn 0.2579 -0.9662 -0.0000
vn 0.3606 -0.9327 -0.0000
vn 0.4623 -0.8867 -0.0000
vn 0.5621 -0.8270 -0.0000
vn 0.5622 -0.8270 -0.0000
vn 0.6585 -0.7526 -0.0000
vn 0.7492 -0.6624 -0.0000
vn 0.8312 -0.5560 -0.0000
vn 0.9009 -0.4340 -0.0000
vn 0.9545 -0.2982 -0.0000
vn 0.9884 -0.1519 -0.0000
vn 0.9971 -0.0765 -0.0000
vn 0.9971 -0.0764 -0.0000
usemtl INSIDE.001
s 1
f 28/1/1 52/2/1 3/3/2
f 52/2/1 4/4/2 3/3/2
f 27/5/3 51/6/3 28/1/1
f 51/6/3 52/2/1 28/1/1
f 26/7/4 50/8/4 27/5/3
f 50/8/4 51/6/3 27/5/3
f 25/9/5 49/10/5 26/7/4
f 49/10/5 50/8/4 26/7/4
f 24/11/6 48/12/6 25/9/5
f 48/12/6 49/10/5 25/9/5
f 23/13/7 47/14/7 24/11/6
f 47/14/7 48/12/6 24/11/6
f 22/15/8 46/16/8 23/13/7
f 46/16/8 47/14/7 23/13/7
f 21/17/9 45/18/9 22/15/8
f 45/18/9 46/16/8 22/15/8
f 20/19/10 44/20/10 21/17/9
f 44/20/10 45/18/9 21/17/9
f 19/21/11 43/22/11 20/19/10
f 43/22/11 44/20/10 20/19/10
f 18/23/12 42/24/12 19/21/11
f 42/24/12 43/22/11 19/21/11
f 17/25/13 41/26/13 18/23/12
f 41/26/13 42/24/12 18/23/12
f 16/27/14 40/28/14 17/25/13
f 40/28/14 41/26/13 17/25/13
f 39/29/15 16/27/14 15/30/15
f 40/28/14 16/27/14 39/29/15
f 38/31/16 15/30/15 14/32/16
f 39/29/15 15/30/15 38/31/16
f 37/33/17 14/32/16 13/34/17
f 38/31/16 14/32/16 37/33/17
f 36/35/18 13/34/17 12/36/18
f 37/33/17 13/34/17 36/35/18
f 35/37/19 12/36/18 11/38/19
f 36/35/18 12/36/18 35/37/19
f 34/39/20 11/38/19 10/40/20
f 35/37/19 11/38/19 34/39/20
f 33/41/21 10/40/20 9/42/21
f 34/39/20 10/40/20 33/41/21
f 32/43/22 9/42/21 8/44/22
f 33/41/21 9/42/21 32/43/22
f 31/45/23 8/44/22 7/46/23
f 32/43/22 8/44/22 31/45/23
f 30/47/24 7/46/23 6/48/24
f 31/45/23 7/46/23 30/47/24
f 29/49/25 6/48/24 5/50/25
f 30/47/24 6/48/24 29/49/25
f 1/51/26 5/50/25 2/52/26
f 29/49/25 5/50/25 1/51/26
f 80/53/1 104/54/1 55/55/2
f 104/54/1 56/56/2 55/55/2
f 79/57/3 103/58/3 80/53/1
f 103/58/3 104/54/1 80/53/1
f 78/59/4 102/60/4 79/57/3
f 102/60/4 103/58/3 79/57/3
f 77/61/5 101/62/5 78/59/4
f 101/62/5 102/60/4 78/59/4
f 76/63/6 100/64/6 77/61/5
f 100/64/6 101/62/5 77/61/5
f 75/65/7 99/66/7 76/63/6
f 99/66/7 100/64/6 76/63/6
f 74/67/8 98/68/8 75/65/7
f 98/68/8 99/66/7 75/65/7
f 73/69/9 97/70/9 74/67/8
f 97/70/9 98/68/8 74/67/8
f 72/71/10 96/72/10 73/69/9
f 96/72/10 97/70/9 73/69/9
f 71/73/11 95/74/11 72/71/10
f 95/74/11 96/72/10 72/71/10
f 70/75/12 94/76/12 71/73/11
f 94/76/12 95/74/11 71/73/11
f 69/77/13 93/78/13 70/75/12
f 93/78/13 94/76/12 70/75/12
f 68/79/14 92/80/14 69/77/13
f 92/80/14 93/78/13 69/77/13
f 91/81/15 68/79/14 67/82/15
f 92/80/14 68/79/14 91/81/15
f 90/83/16 67/82/15 66/84/16
f 91/81/15 67/82/15 90/83/16
f 89/85/17 66/84/16 65/86/17
f 90/83/16 66/84/16 89/85/17
f 88/87/18 65/86/17 64/88/18
f 89/85/17 65/86/17 88/87/18
f 87/89/19 64/88/18 63/90/19
f 88/87/18 64/88/18 87/89/19
f 86/91/20 63/90/19 62/92/20
f 87/89/19 63/90/19 86/91/20
f 85/93/21 62/92/20 61/94/21
f 86/91/20 62/92/20 85/93/21
f 84/95/22 61/94/21 60/96/22
f 85/93/21 61/94/21 84/95/22
f 83/97/23 60/96/22 59/98/23
f 84/95/22 60/96/22 83/97/23
f 82/99/24 59/98/23 58/100/24
f 83/97/23 59/98/23 82/99/24
f 81/101/25 58/100/24 57/102/25
f 82/99/24 58/100/24 81/101/25
f 53/103/26 57/102/25 54/104/26
f 81/101/25 57/102/25 53/103/26
f 132/105/1 156/106/1 107/107/2
f 156/106/1 108/108/2 107/107/2
f 131/109/3 155/110/3 132/105/1
f 155/110/3 156/106/1 132/105/1
f 130/111/4 154/112/4 131/109/3
f 154/112/4 155/110/3 131/109/3
f 129/113/5 153/114/5 130/111/4
f 153/114/5 154/112/4 130/111/4
f 128/115/6 152/116/6 129/113/5
f 152/116/6 153/114/5 129/113/5
f 127/117/7 151/118/7 128/115/6
f 151/118/7 152/116/6 128/115/6
f 126/119/8 150/120/8 127/117/7
f 150/120/8 151/118/7 127/117/7
f 125/121/9 149/122/9 126/119/8
f 149/122/9 150/120/8 126/119/8
f 124/123/10 148/124/10 125/121/9
f 148/124/10 149/122/9 125/121/9
f 123/125/11 147/126/11 124/123/10
f 147/126/11 148/124/10 124/123/10
f 122/127/12 146/128/12 123/125/11
f 146/128/12 147/126/11 123/125/11
f 121/129/13 145/130/13 122/127/12
f 145/130/13 146/128/12 122/127/12
f 120/131/14 144/132/14 121/129/13
f 144/132/14 145/130/13 121/129/13
f 143/133/15 120/131/14 119/134/15
f 144/132/14 120/131/14 143/133/15
f 142/135/16 119/134/15 118/136/16
f 143/133/15 119/134/15 142/135/16
f 141/137/17 118/136/16 117/138/17
f 142/135/16 118/136/16 141/137/17
f 140/139/18 117/138/17 116/140/18
f 141/137/17 117/138/17 140/139/18
f 139/141/19 116/140/18 115/142/19
f 140/139/18 116/140/18 139/141/19
f 138/143/20 115/142/19 114/144/20
f 139/141/19 115/142/19 138/143/20
f 137/145/21 114/144/20 113/146/21
f 138/143/20 114/144/20 137/145/21
f 136/147/22 113/146/21 112/148/22
f 137/145/21 113/146/21 136/147/22
f 135/149/23 112/148/22 111/150/23
f 136/147/22 112/148/22 135/149/23
f 134/151/24 111/150/23 110/152/24
f 135/149/23 111/150/23 134/151/24
f 133/153/25 110/152/24 109/154/25
f 134/151/24 110/152/24 133/153/25
f 105/155/26 109/154/25 106/156/26
f 133/153/25 109/154/25 105/155/26
f 184/157/27 208/158/27 159/159/28
f 208/158/27 160/160/28 159/159/28
f 183/161/29 207/162/29 184/157/27
f 207/162/29 208/158/27 184/157/27
f 182/163/30 206/164/31 183/161/29
f 206/164/31 207/162/29 183/161/29
f 181/165/32 205/166/32 182/163/30
f 205/166/32 206/164/31 182/163/30
f 180/167/33 204/168/33 181/165/32
f 204/168/33 205/166/32 181/165/32
f 179/169/34 203/170/34 180/167/33
f 203/170/34 204/168/33 180/167/33
f 178/171/35 202/172/35 179/169/34
f 202/172/35 203/170/34 179/169/34
f 177/173/36 201/174/36 178/171/35
f 201/174/36 202/172/35 178/171/35
f 176/175/37 200/176/37 177/173/36
f 200/176/37 201/174/36 177/173/36
f 175/177/38 199/178/38 176/175/37
f 199/178/38 200/176/37 176/175/37
f 174/179/39 198/180/39 175/177/38
f 198/180/39 199/178/38 175/177/38
f 173/181/40 197/182/40 174/179/39
f 197/182/40 198/180/39 174/179/39
f 172/183/41 196/184/41 173/181/40
f 196/184/41 197/182/40 173/181/40
f 195/185/42 172/183/41 171/186/42
f 196/184/41 172/183/41 195/185/42
f 194/187/43 171/186/42 170/188/43
f 195/185/42 171/186/42 194/187/43
f 193/189/44 170/188/43 169/190/44
f 194/187/43 170/188/43 193/189/44
f 192/191/45 169/190/44 168/192/45
f 193/189/44 169/190/44 192/191/45
f 191/193/46 168/192/45 167/194/47
f 192/191/45 168/192/45 191/193/46
f 190/195/48 167/194/47 166/196/48
f 191/193/46 167/194/47 190/195/48
f 189/197/49 166/196/48 165/198/49
f 190/195/48 166/196/48 189/197/49
f 188/199/50 165/198/49 164/200/50
f 189/197/49 165/198/49 188/199/50
f 187/201/51 164/200/50 163/202/51
f 188/199/50 164/200/50 187/201/51
f 186/203/52 163/202/51 162/204/52
f 187/201/51 163/202/51 186/203/52
f 185/205/53 162/204/52 161/206/53
f 186/203/52 162/204/52 185/205/53
f 157/207/54 161/206/53 158/208/55
f 185/205/53 161/206/53 157/207/54
f 236/209/27 260/210/27 211/211/28
f 260/210/27 212/212/28 211/211/28
f 235/213/29 259/214/29 236/209/27
f 259/214/29 260/210/27 236/209/27
f 234/215/31 258/216/31 235/213/29
f 258/216/31 259/214/29 235/213/29
f 233/217/32 257/218/32 234/215/31
f 257/218/32 258/216/31 234/215/31
f 232/219/33 256/220/33 233/217/32
f 256/220/33 257/218/32 233/217/32
f 231/221/34 255/222/34 232/219/33
f 255/222/34 256/220/33 232/219/33
f 230/223/35 254/224/35 231/221/34
f 254/224/35 255/222/34 231/221/34
f 229/225/36 253/226/36 230/223/35
f 253/226/36 254/224/35 230/223/35
f 228/227/37 252/228/37 229/225/36
f 252/228/37 253/226/36 229/225/36
f 227/229/38 251/230/38 228/227/37
f 251/230/38 252/228/37 228/227/37
f 226/231/39 250/232/39 227/229/38
f 250/232/39 251/230/38 227/229/38
f 225/233/40 249/234/40 226/231/39
f 249/234/40 250/232/39 226/231/39
f 224/235/41 248/236/41 225/233/40
f 248/236/41 249/234/40 225/233/40
f 247/237/42 224/235/41 223/238/42
f 248/236/41 224/235/41 247/237/42
f 246/239/43 223/238/42 222/240/43
f 247/237/42 223/238/42 246/239/43
f 245/241/44 222/240/43 221/242/44
f 246/239/43 222/240/43 245/241/44
f 244/243/45 221/242/44 220/244/45
f 245/241/44 221/242/44 244/243/45
f 243/245/46 220/244/45 219/246/46
f 244/243/45 220/244/45 243/245/46
f 242/247/48 219/246/46 218/248/48
f 243/245/46 219/246/46 242/247/48
f 241/249/49 218/248/48 217/250/49
f 242/247/48 218/248/48 241/249/49
f 240/251/50 217/250/49 216/252/50
f 241/249/49 217/250/49 240/251/50
f 239/253/51 216/252/50 215/254/51
f 240/251/50 216/252/50 239/253/51
f 238/255/52 215/254/51 214/256/52
f 239/253/51 215/254/51 238/255/52
f 237/257/53 214/256/52 213/258/53
f 238/255/52 214/256/52 237/257/53
f 209/259/55 213/258/53 210/260/55
f 237/257/53 213/258/53 209/259/55
